<svg id="visual" viewBox="0 0 900 600" width="900" height="600" xmlns="http://www.w3.org/2000/svg" xmlns:xlink="http://www.w3.org/1999/xlink" version="1.1"><path d="M0 475L129 475L129 439L257 439L257 471L386 471L386 405L514 405L514 435L643 435L643 422L771 422L771 452L900 452L900 450L900 601L900 601L771 601L771 601L643 601L643 601L514 601L514 601L386 601L386 601L257 601L257 601L129 601L129 601L0 601Z" fill="#c6e6e2"></path><path d="M0 515L129 515L129 517L257 517L257 462L386 462L386 486L514 486L514 500L643 500L643 458L771 458L771 522L900 522L900 498L900 601L900 601L771 601L771 601L643 601L643 601L514 601L514 601L386 601L386 601L257 601L257 601L129 601L129 601L0 601Z" fill="#79c0b5"></path><path d="M0 536L129 536L129 536L257 536L257 516L386 516L386 520L514 520L514 519L643 519L643 515L771 515L771 562L900 562L900 543L900 601L900 601L771 601L771 601L643 601L643 601L514 601L514 601L386 601L386 601L257 601L257 601L129 601L129 601L0 601Z" fill="#049a87"></path></svg>